<svg width="84" height="84" viewBox="0 0 84 84" fill="none" xmlns="http://www.w3.org/2000/svg">
<g id="Group 1">
<circle id="Ellipse 1" cx="42.0001" cy="42.0001" r="42" transform="rotate(90 42.0001 42.0001)" fill="white"/>
<path id="Ellipse 2" d="M49.0806 31.7201C49.0806 35.4314 46.072 32.5601 42.3606 32.5601C38.6493 32.5601 35.6406 35.4314 35.6406 31.7201C35.6406 28.0087 38.6493 25.0001 42.3606 25.0001C46.072 25.0001 49.0806 28.0087 49.0806 31.7201Z" fill="#0D0D0D"/>
<path id="Ellipse 5" d="M48.16 54.0894C44.9458 52.2337 48.9368 51.0638 50.7925 47.8497C52.6482 44.6356 51.6658 40.5943 54.88 42.45C58.0941 44.3057 59.1953 48.4156 57.3396 51.6297C55.484 54.8438 51.3741 55.9451 48.16 54.0894Z" fill="#0D0D0D"/>
<path id="Ellipse 6" d="M29.4896 42.4497C32.7038 40.594 31.7214 44.6352 33.5771 47.8493C35.4328 51.0635 39.4238 52.2334 36.2096 54.089C32.9955 55.9447 28.8856 54.8435 27.03 51.6293C25.1743 48.4152 26.2755 44.3053 29.4896 42.4497Z" fill="#0D0D0D"/>
</g>
</svg>
