<svg width="47" height="47" viewBox="0 0 47 47" fill="none" xmlns="http://www.w3.org/2000/svg">
<g id="Group">
<path id="Vector" d="M14.5 46H32.5C38.863 46 42.0468 46 44.0223 44.0245C46 42.0445 46 38.8653 46 32.5V30.25C46 23.887 46 20.7055 44.0223 18.7278C42.2943 16.9998 39.6437 16.7815 34.75 16.7545M12.25 16.7545C7.35625 16.7815 4.70575 16.9998 2.97775 18.7278C1 20.7055 1 23.887 1 30.25V32.5C1 38.8653 1 42.0468 2.97775 44.0245C3.65275 44.6995 4.46725 45.1428 5.5 45.4353" stroke="#0D0D0D" stroke-width="2" stroke-linecap="round"/>
<path id="Vector_2" d="M23.5 1V30.25M23.5 30.25L16.75 22.375M23.5 30.25L30.25 22.375" stroke="#0D0D0D" stroke-width="2" stroke-linecap="round" stroke-linejoin="round"/>
</g>
</svg>
